<?xml version="1.0" encoding="UTF-8" standalone="no"?>
<svg
   width="96.378326mm"
   height="116.88763mm"
   viewBox="0 0 96.378329 116.88763"
   version="1.1"
   id="svg1"
   sodipodi:docname="logo.svg"
   inkscape:export-filename="../b5004bf5/logo_v1.png"
   inkscape:export-xdpi="96"
   inkscape:export-ydpi="96"
   inkscape:version="1.4.1-rc (06eac75fbf, 2025-03-29)"
   xmlns:inkscape="http://www.inkscape.org/namespaces/inkscape"
   xmlns:sodipodi="http://sodipodi.sourceforge.net/DTD/sodipodi-0.dtd"
   xmlns="http://www.w3.org/2000/svg"
   xmlns:svg="http://www.w3.org/2000/svg">
  <defs
     id="defs1" />
  <sodipodi:namedview
     id="namedview1"
     pagecolor="#ffffff"
     bordercolor="#000000"
     borderopacity="0.25"
     inkscape:showpageshadow="2"
     inkscape:pageopacity="0.0"
     inkscape:pagecheckerboard="0"
     inkscape:deskcolor="#d1d1d1"
     inkscape:document-units="mm"
     inkscape:zoom="1.2889483"
     inkscape:cx="178.44005"
     inkscape:cy="279.68538"
     inkscape:window-width="1920"
     inkscape:window-height="1016"
     inkscape:window-x="0"
     inkscape:window-y="0"
     inkscape:window-maximized="1"
     inkscape:current-layer="svg1" />
  <path
     style="fill:#219ebc;fill-opacity:1;stroke:#219ebc;stroke-width:0"
     d="M 0.416936,1.4540908 C 8.573759,21.762396 17.019266,41.951409 25.340924,62.19307 c 14.68968,0.0057 29.379365,0.01129 44.069044,0.01669 C 46.399611,41.476857 23.2225,20.899221 0,0.39618884 0.138978,0.74881798 0.277957,1.1014471 0.416936,1.4540756 Z"
     id="path6" />
  <path
     style="fill:#ffb703;fill-opacity:1;stroke:#219ebc;stroke-width:0"
     d="M 95.251336,0.98705458 C 79.798068,14.648105 64.48267,28.469483 49.064784,42.172679 56.301826,48.577422 63.378025,55.171114 70.81108,61.349984 79.497327,40.97319 88.013377,20.515337 96.378326,0 c -0.37567,0.32901844 -0.75133,0.65803648 -1.12699,0.98705458 z"
     id="path7" />
  <path
     style="fill:#023047;fill-opacity:1;stroke:#219ebc;stroke-width:0"
     d="m 43.554787,63.639676 c -5.817165,0.02113 -11.635159,0.009 -17.4514,0.124963 7.272804,17.721562 14.537499,35.449252 21.923089,53.122991 C 55.413655,99.238723 62.740475,81.564019 69.988151,63.857354 61.192634,63.441056 52.360471,63.723456 43.554787,63.639676 Z"
     id="path8" />
</svg>
